<svg width="22" height="21" viewBox="0 0 22 21" fill="none" xmlns="http://www.w3.org/2000/svg">
<path d="M8.05613 16.6595L6.94238 17.7161C6.47581 18.1544 5.84738 18.4001 5.1927 18.4001C4.53802 18.4001 3.90959 18.1544 3.44301 17.7161C3.21553 17.501 3.03494 17.2451 2.9117 16.963C2.78846 16.681 2.72501 16.3784 2.72501 16.0728C2.72501 15.7672 2.78846 15.4646 2.9117 15.1825C3.03494 14.9005 3.21553 14.6445 3.44301 14.4295L7.54051 10.551C8.38888 9.74644 9.98663 8.56254 11.1513 9.66506C11.2766 9.79263 11.4276 9.89479 11.5952 9.96544C11.7628 10.0361 11.9435 10.0738 12.1267 10.0763C12.3099 10.0788 12.4918 10.046 12.6614 9.97995C12.8311 9.91388 12.985 9.81588 13.1141 9.69177C13.2432 9.56766 13.3448 9.42001 13.4128 9.25761C13.4808 9.09521 13.5138 8.9214 13.5099 8.74655C13.5059 8.5717 13.4652 8.39939 13.39 8.23992C13.3148 8.08044 13.2067 7.93707 13.0721 7.81834C11.0949 5.94406 8.16888 6.29057 5.62101 8.70429L1.52352 12.5841C1.03937 13.0397 0.655263 13.583 0.393671 14.182C0.132079 14.781 -0.00174869 15.4238 1.72516e-05 16.0728C-0.00167192 16.7218 0.13219 17.3645 0.393778 17.9636C0.655365 18.5626 1.03943 19.1058 1.52352 19.5615C2.49935 20.4854 3.81893 21.0027 5.19339 21C6.52301 21 7.85263 20.5209 8.86326 19.5615L9.97838 18.5049C10.1055 18.3848 10.2066 18.242 10.2758 18.0846C10.345 17.9271 10.381 17.7582 10.3816 17.5875C10.3823 17.4168 10.3476 17.2476 10.2796 17.0897C10.2115 16.9318 10.1115 16.7883 9.98526 16.6674C9.73001 16.4231 9.38385 16.2851 9.02239 16.2836C8.66094 16.2821 8.31356 16.4173 8.05613 16.6595V16.6595ZM20.4751 1.58649C18.348 -0.426914 15.3752 -0.535853 13.409 1.32793L12.0216 2.64307C11.7653 2.88605 11.6205 3.21628 11.6192 3.56113C11.6179 3.90598 11.7602 4.2372 12.0148 4.48191C12.2693 4.72663 12.6153 4.8648 12.9765 4.86603C13.3378 4.86726 13.6848 4.73145 13.9411 4.48848L15.3299 3.17464C16.3474 2.20863 17.6825 2.60895 18.5556 3.43321C19.0176 3.8729 19.2734 4.45566 19.2734 5.07649C19.2734 5.69731 19.0176 6.28007 18.5556 6.71845L14.1831 10.8581C12.1839 12.7495 11.2461 11.8635 10.846 11.4842C10.7191 11.3639 10.5685 11.2686 10.403 11.2039C10.2375 11.1391 10.0603 11.106 9.88139 11.1067C9.70251 11.1073 9.52551 11.1415 9.36049 11.2074C9.19547 11.2733 9.04567 11.3696 8.91963 11.4908C8.79359 11.6119 8.6938 11.7556 8.62593 11.9136C8.55807 12.0716 8.52347 12.2408 8.5241 12.4116C8.52474 12.5823 8.56061 12.7513 8.62965 12.9088C8.6987 13.0663 8.79957 13.2093 8.92651 13.3296C9.845 14.1985 10.8928 14.629 11.99 14.629C13.3334 14.629 14.7537 13.9833 16.1054 12.7035L20.4779 8.56517C20.961 8.10885 21.3443 7.56548 21.6056 6.96659C21.8669 6.3677 22.0009 5.72524 22 5.07649C22.0012 4.42727 21.867 3.78431 21.6052 3.18511C21.3434 2.58592 20.9592 2.04248 20.4751 1.58649V1.58649Z" fill="white"/>
</svg>
