<svg width="55" height="40" viewBox="0 0 55 40" fill="none" xmlns="http://www.w3.org/2000/svg">
<path d="M54.622 20C54.622 19.5406 54.7532 12.8469 50.8157 8.51562C50.6188 8.12187 49.8313 6.54688 47.1407 4.64375C45.3688 3.26563 43.5313 2.28125 43.3345 2.15C43.1376 2.01875 39.8563 0.3125 35.9188 0.3125C35.5907 0.3125 35.3282 0.3125 35.0001 0.378125C31.9813 0.3125 29.2251 1.1 27.1907 2.01875C25.0907 2.9375 23.7126 3.85625 23.5813 3.9875C21.3501 5.23437 17.0845 10.2219 16.7563 12.9125C15.3782 14.6188 14.2626 22.4281 16.7563 27.1531C18.5282 33.7156 25.0907 36.9969 25.6157 37.2594C25.9438 37.4562 29.4876 39.6875 33.8845 39.6875H34.4751C34.8688 39.7531 35.197 39.7531 35.5907 39.7531C40.3157 39.7531 47.4032 36.4062 48.847 33.7812C52.9157 30.7625 55.0157 23.15 54.622 20V20ZM25.6813 29.9094C23.7782 26.8906 22.7282 22.8875 22.4657 21.9688C23.0563 21.05 26.0095 16.7188 27.6501 15.4062C28.5688 15.6031 32.572 16.325 36.3126 16.9812C36.772 18.2281 38.872 23.5437 39.4626 25.6437C38.8063 26.4312 36.247 29.3844 33.7532 31.6812C31.0626 31.7469 26.5345 30.1719 25.6813 29.9094V29.9094ZM49.3063 8.58125C49.3063 8.84375 49.2407 9.89375 48.7157 11.1406C47.7313 10.6156 45.2376 9.56563 41.7595 9.36875C41.2345 8.58125 39.2657 5.89062 36.1813 4.05312C36.5751 3.2 37.1657 2.21563 37.5595 1.8875C37.6907 1.8875 37.822 1.82188 38.0845 1.82188C39.7251 1.82188 42.6126 2.9375 42.8751 3.00312C43.1376 3.13437 48.322 5.89063 49.3063 8.58125ZM21.7438 21.3125C19.5126 20.9187 18.1345 20.2625 17.7407 20C16.8876 16.9813 17.6095 13.7 17.6751 13.2406C18.5282 11.7969 20.8251 7.99063 22.4001 7.26875C23.9751 6.94063 26.0095 7.33437 26.797 7.53125C26.7313 8.58125 26.6001 11.5344 26.9938 14.6844C25.2876 16.1281 22.4657 20.2625 21.7438 21.3125ZM34.8032 1.29688C35.3282 1.3625 36.0501 1.42812 36.5751 1.625C36.0501 2.28125 35.5251 3.26563 35.3282 3.79063C34.2782 3.9875 30.4063 4.70937 27.322 6.67812C26.7313 6.54687 24.8282 6.0875 23.0563 6.21875C23.5157 5.36563 24.172 4.775 24.2376 4.70937C24.4345 4.5125 29.0938 1.23125 34.8032 1.29688V1.29688ZM47.3376 26.3C46.5501 26.3 43.597 26.1031 40.3813 25.3156C39.7907 23.15 37.6907 17.8344 37.2313 16.5875C39.2657 13.7 41.2345 11.0094 41.7595 10.2219C45.5001 10.4844 48.1251 11.8625 48.6501 12.125C50.8157 15.6031 51.2751 19.1469 51.3407 19.7375C50.1595 23.3469 47.9282 25.775 47.3376 26.3ZM16.4282 17.7031C16.4938 18.5562 16.6251 19.4094 16.8876 20.2625C16.6907 20.8531 16.4938 21.4437 16.4282 22.0344C16.2313 20.525 16.2313 19.0156 16.4282 17.7031ZM26.1407 36.4062L25.8782 36.8L26.1407 36.4062C24.5001 35.6187 23.2532 33.7813 22.7282 33.0594C23.7126 32.075 24.9595 31.1562 25.4188 30.8281C26.4688 31.2219 30.8657 32.6656 33.6876 32.6656C34.147 33.3219 35.722 35.2906 37.6251 36.8656C36.4438 38.0469 34.7376 38.5719 34.4095 38.7031C29.947 38.8344 26.1407 36.4062 26.1407 36.4062V36.4062ZM36.8376 38.6375C37.4282 38.3094 38.0845 37.85 38.6095 37.2594C39.4626 37.1281 43.1376 36.5375 46.4188 34.1094C46.6157 34.1094 47.0095 34.175 47.4032 34.175C45.3688 36.0781 40.5126 38.2438 36.8376 38.6375ZM46.9438 33.125C48.1251 30.0406 48.0595 27.6781 47.9938 26.9562C48.6501 26.3 50.8813 23.9375 52.1282 20.3281C52.7845 20.4594 53.2438 20.5906 53.4407 20.7219C53.5063 20.9844 53.6376 21.575 53.572 22.4937C53.047 25.775 51.3407 30.7625 48.2563 32.9281C47.9282 33.125 47.4032 33.1906 46.9438 33.125Z" fill="#413A61"/>
<path d="M0.356636 34.1434L9.44715 25.0529C10.1643 24.3357 12.0559 25.0839 12.3279 26.0609C12.4452 26.4821 12.5746 26.8805 12.6999 27.2301C12.8617 27.6819 12.7124 28.1942 12.3146 28.4627L1.62322 35.6794C0.619215 36.3571 -0.499896 34.9999 0.356636 34.1434Z" fill="#413A61"/>
<path d="M9.83561 34.2292L13.552 31.6563C14.0524 31.3099 14.7675 31.476 15.1424 31.9555C15.2621 32.1086 15.3877 32.2622 15.5128 32.4105C15.9677 32.9501 15.7982 33.8041 15.1506 34.0848L10.8024 35.969C9.69376 36.4494 8.84216 34.917 9.83561 34.2292Z" fill="#413A61"/>
</svg>
